<svg width="542" height="470" viewBox="0 0 542 470" fill="none" xmlns="http://www.w3.org/2000/svg">
<g clip-path="url(#clip0)">
<path opacity="0.1" d="M533.116 209.288C533.019 209.955 532.922 210.622 532.814 211.289C529.345 233.997 523.68 255.889 515.256 275.989C514.98 276.656 514.699 277.323 514.412 277.99C509.006 290.663 502.368 302.574 494.628 313.486C490.432 319.374 485.857 324.965 480.417 329.002C472.792 334.658 463.878 336.956 455.117 338.838C446.013 340.796 436.791 342.41 427.59 344.196C424.329 344.815 421.088 345.464 417.867 346.143C408.978 348.012 400.156 350.174 391.543 353.037C380.894 356.61 370.562 361.212 360.839 367.731C360.061 368.247 359.292 368.777 358.531 369.321C357.768 369.857 356.995 370.405 356.253 370.964C355.511 371.524 354.764 372.078 354.027 372.643L352.891 373.536C352.518 373.822 352.149 374.132 351.781 374.417C350.686 375.287 349.606 376.204 348.526 377.085L348.485 377.121C347.774 377.716 347.068 378.311 346.362 378.907C342.375 382.342 338.476 385.938 334.591 389.546L332.14 391.826C330.875 392.993 329.609 394.158 328.343 395.321C327.601 396.006 326.849 396.685 326.102 397.363C325.559 397.858 325.022 398.352 324.469 398.84C321.701 401.323 318.896 403.752 316.036 406.074C315.355 406.628 314.664 407.181 313.989 407.723C308.263 412.28 302.172 416.184 295.802 419.381L295.72 419.422C292.582 420.978 289.353 422.274 286.058 423.298C284.17 423.894 282.281 424.364 280.367 424.733C275.269 425.759 270.065 425.864 264.938 425.043C254.862 423.382 245.421 417.898 235.37 416.064C214.634 412.319 194.497 424.4 174.985 433.884C170.208 436.21 165.379 438.393 160.497 440.433C157.263 441.791 154.014 443.083 150.749 444.309C130.858 451.794 110.362 456.895 89.5802 459.533C81.0956 460.611 72.2476 461.123 63.6094 460.349C60.3473 460.07 57.1012 459.579 53.8863 458.878C42.9504 456.497 32.7412 451.442 24.5175 442.208C17.6858 434.652 12.8652 424.775 9.19087 414.469C7.71365 410.329 6.41212 406.094 5.28629 401.763C3.51669 394.977 2.18755 388.045 1.31006 381.026C1.11049 379.443 0.931376 377.853 0.798324 376.263C0.532219 373.536 0.334343 370.798 0.204702 368.047C-0.511796 353.428 0.715478 338.768 3.84318 324.584C7.32814 308.872 13.1415 293.827 15.7002 277.966C15.8077 277.299 15.9049 276.632 16.0021 275.965C16.3433 273.584 16.6026 271.159 16.78 268.69C18.0696 249.292 13.0801 230.305 9.1397 211.289C9.00153 210.622 8.86336 209.955 8.73031 209.288C8.30385 207.181 7.89958 205.071 7.51748 202.96C3.86877 182.848 2.87087 161.325 6.11019 141.254C6.21254 140.587 6.33024 139.915 6.44794 139.254C8.63308 126.822 12.4916 114.998 18.4022 104.466C24.4663 93.6535 32.429 84.6573 40.9188 76.7506C45.0639 72.9005 49.3506 69.2984 53.7789 65.9444C56.9619 63.5391 60.2029 61.2628 63.5019 59.1154C90.1585 41.8494 120.571 33.4128 150.641 35.3002C152.234 35.3954 153.824 35.5224 155.411 35.6812C157.075 35.8479 158.735 36.0464 160.39 36.2766C179.749 38.8784 198.586 45.3264 217.311 52.3817C223.585 54.7632 229.843 57.1447 236.102 59.5262C238.886 60.582 241.668 61.624 244.448 62.652C258.086 67.6591 271.949 72.1781 285.94 75.5837C289.185 76.3775 292.426 77.1019 295.663 77.7568C306.919 80.1027 318.31 81.4679 329.74 81.8411C334.175 81.9681 338.61 81.9146 343.045 81.6804C345.287 81.5613 347.53 81.3867 349.775 81.1564C372.962 78.8464 395.32 71.1005 417.77 63.8249C421.014 62.7711 424.264 61.7232 427.493 60.711C431.761 59.3774 436.034 58.0854 440.322 56.8947C467.025 49.4345 490.821 53.7213 515.645 69.1059C521.275 72.6008 526.904 76.8161 530.384 83.3415C533.863 89.8669 534.708 97.9462 535.352 105.722C536.263 116.784 536.888 128.001 537.087 139.266C537.087 139.933 537.087 140.599 537.123 141.266C537.573 164.075 536.381 187.057 533.116 209.288Z" fill="#226699"/>
<path opacity="0.1" d="M356.008 275.989H354.263V276.876V277.99H356.238L356.008 275.989ZM336.229 275.989C336.227 276.005 336.227 276.021 336.229 276.037L336.075 277.692V277.841V277.99H351.223V277.87L352.303 275.989H336.229ZM295.725 275.989V211.289H313.124C312.94 211.11 312.75 210.932 312.556 210.765L312.3 210.539C312.193 210.438 312.085 210.342 311.973 210.253C311.86 210.164 311.594 209.937 311.394 209.783C311.195 209.628 311.072 209.527 310.883 209.402L310.765 209.312H310.739H295.725V205.77L295.32 205.996L294.891 206.276H294.86L294.768 206.341L294.502 206.544C294.41 206.609 294.318 206.675 294.23 206.746C293.964 206.955 293.719 207.181 293.437 207.413L293.181 207.651C293.007 207.806 292.844 207.967 292.67 208.127C291.989 208.776 291.319 209.455 290.623 210.08C290.449 210.241 290.275 210.396 290.111 210.545C289.739 210.862 289.353 211.156 288.954 211.426C288.789 211.546 288.618 211.655 288.443 211.753L288.156 211.908L287.895 212.039C287.28 212.341 286.643 212.576 285.991 212.742V275.989H259.893C259.893 276.061 259.928 276.126 259.944 276.197C260.087 276.793 260.23 277.388 260.369 277.984H285.997V347.34H286.396L286.851 347.375L287.68 347.447L289.021 347.602L289.625 347.685L290.29 347.78H290.387C290.771 347.84 291.16 347.911 291.554 347.983L291.805 348.03L292.368 348.137L293.176 348.304L295.116 348.185L295.382 348.251C295.489 348.251 295.597 348.298 295.709 348.328V277.99H336.04V277.841V277.692L336.193 276.037C336.191 276.021 336.191 276.005 336.193 275.989H295.725ZM356.008 275.989H354.263V276.876V277.99H356.238L356.008 275.989ZM335.139 275.989L334.965 277.99H351.817L352.963 275.989H335.139ZM295.735 275.989V211.289H313.134C312.95 211.11 312.761 210.932 312.566 210.765L312.31 210.539C312.203 210.438 312.095 210.342 311.983 210.253C311.87 210.164 311.604 209.937 311.404 209.783C311.205 209.628 311.082 209.527 310.893 209.402L310.775 209.312H310.739H295.725V205.77L295.32 205.996L294.891 206.276H294.86L294.768 206.341L294.502 206.544C294.41 206.609 294.318 206.675 294.23 206.746C293.964 206.955 293.719 207.181 293.437 207.413L293.181 207.651C293.007 207.806 292.844 207.967 292.67 208.127C291.989 208.776 291.319 209.455 290.623 210.08C290.449 210.241 290.275 210.396 290.111 210.545C289.739 210.862 289.353 211.156 288.954 211.426C288.789 211.546 288.618 211.655 288.443 211.753L288.156 211.908L287.895 212.039C287.28 212.341 286.643 212.576 285.991 212.742V275.989H259.893C259.893 276.061 259.928 276.126 259.944 276.197C260.087 276.793 260.236 277.388 260.374 277.984H285.997V347.334L286.396 347.363L286.851 347.399L287.68 347.471L289.021 347.625L289.625 347.709L290.29 347.804H290.387C290.771 347.864 291.16 347.935 291.554 348.006L291.805 348.054L292.368 348.161L293.176 348.328L295.116 348.209L295.382 348.274C295.489 348.274 295.597 348.322 295.709 348.352V277.99H334.965L335.149 275.989H295.735ZM427.59 141.254H537.22C537.22 140.587 537.22 139.921 537.185 139.254H427.59V60.6991C424.335 61.7113 421.086 62.7592 417.867 63.813V139.254H298.631L298.329 138.873L298.785 138.277L343.132 81.6506C338.697 81.8888 334.262 81.9423 329.827 81.8114L295.725 125.334V77.7449C292.47 77.09 289.229 76.3656 286.002 75.5718V123.143L236.143 59.5143C229.884 57.1328 223.626 54.7096 217.352 52.3698L285.121 138.873L284.82 139.254H160.431V36.2528C158.773 36.0345 157.113 35.836 155.451 35.6574C153.865 35.4947 152.275 35.3676 150.682 35.2764V139.254H63.5429V59.1154C60.237 61.2588 56.996 63.5351 53.8198 65.9444V139.254H6.42747C6.30977 139.915 6.19207 140.587 6.08972 141.254H53.7788V209.288H8.73031C8.86336 209.955 9.00153 210.622 9.1397 211.289H53.7993V275.989H15.9868C15.8896 276.656 15.7923 277.323 15.6849 277.99H53.7993V458.896C57.0142 459.597 60.2603 460.088 63.5224 460.367V277.99H150.682V444.327C153.95 443.093 157.2 441.801 160.431 440.451V277.99H285.981V423.322C289.276 422.297 292.505 421.002 295.643 419.446L295.725 419.404V277.99H417.836V346.143C421.074 345.464 424.315 344.815 427.559 344.196V277.99H514.386C514.673 277.323 514.954 276.656 515.231 275.989H427.59V211.289H532.819C532.927 210.622 533.024 209.955 533.121 209.288H427.59V141.254ZM63.548 141.254H150.682V209.288H63.5429L63.548 141.254ZM63.548 275.989V211.289H150.682V275.989H63.548ZM160.436 141.254H285.981V209.288H160.431L160.436 141.254ZM160.436 275.989V211.289H285.981V275.989H160.436ZM417.841 275.989H295.725V211.289H417.836L417.841 275.989ZM417.841 209.306H295.725V143.076L297.439 141.254H417.836L417.841 209.306ZM336.234 275.989C336.232 276.005 336.232 276.021 336.234 276.037L336.081 277.692V277.841V277.99H351.228V277.87L352.308 275.989H336.234ZM356.013 275.989H354.268V276.876V277.99H356.243L356.013 275.989ZM295.73 275.989V211.289H313.129C312.945 211.11 312.755 210.932 312.561 210.765L312.305 210.539C312.198 210.438 312.09 210.342 311.978 210.253C311.865 210.164 311.599 209.937 311.399 209.783C311.2 209.628 311.077 209.527 310.888 209.402L310.77 209.312H310.744H295.725V205.77L295.32 205.996L294.891 206.276H294.86L294.768 206.341L294.502 206.544C294.41 206.609 294.318 206.675 294.23 206.746C293.964 206.955 293.719 207.181 293.437 207.413L293.181 207.651C293.007 207.806 292.844 207.967 292.67 208.127C291.989 208.776 291.319 209.455 290.623 210.08C290.449 210.241 290.275 210.396 290.111 210.545C289.739 210.862 289.353 211.156 288.954 211.426C288.789 211.546 288.618 211.655 288.443 211.753L288.156 211.908L287.895 212.039C287.28 212.341 286.643 212.576 285.991 212.742V275.989H259.893C259.893 276.061 259.928 276.126 259.944 276.197C260.087 276.793 260.23 277.388 260.369 277.984H285.997V347.34H286.396L286.851 347.375L287.68 347.447L289.021 347.602L289.625 347.685L290.29 347.78H290.387C290.771 347.84 291.16 347.911 291.554 347.983L291.805 348.03L292.368 348.137L293.176 348.304L295.116 348.185L295.382 348.251C295.489 348.251 295.597 348.298 295.709 348.328V277.99H336.04V277.841V277.692L336.193 276.037C336.191 276.021 336.191 276.005 336.193 275.989H295.73Z" fill="#226699"/>
<path opacity="0.1" d="M105.439 94.4096H106.217C105.951 94.2304 105.727 93.9773 105.565 93.6729C105.404 93.3685 105.309 93.0223 105.291 92.6652C105.291 91.2839 106.744 90.1586 108.52 90.1586H131.113C132.889 90.1586 134.342 91.2839 134.342 92.6652C134.342 94.0405 132.889 95.1717 131.113 95.1717H130.361C130.626 95.3521 130.848 95.6056 131.009 95.9098C131.17 96.2141 131.263 96.5598 131.282 96.9162C131.282 98.107 130.228 99.0834 128.815 99.3513H135.32C137.09 99.3513 138.544 100.477 138.544 101.858C138.544 103.239 137.09 104.358 135.32 104.358H112.701C110.93 104.358 109.477 103.233 109.477 101.858C109.477 100.667 110.531 99.6907 111.943 99.4227H105.439C103.668 99.4227 102.215 98.2975 102.215 96.9162C102.215 95.5349 103.658 94.4096 105.439 94.4096Z" fill="#226699"/>
<path opacity="0.1" d="M350.317 118.267H351.075C350.808 118.086 350.584 117.832 350.422 117.527C350.261 117.221 350.167 116.874 350.148 116.516C350.148 115.141 351.602 114.016 353.377 114.016H375.971C377.747 114.016 379.2 115.141 379.2 116.516C379.2 117.897 377.747 119.023 375.971 119.023H375.219C375.484 119.204 375.707 119.459 375.867 119.764C376.028 120.069 376.122 120.416 376.14 120.773C376.14 121.964 375.085 122.934 373.673 123.202H380.177C381.948 123.202 383.401 124.333 383.401 125.709C383.401 127.084 381.948 128.215 380.177 128.215H357.589C355.818 128.215 354.365 127.09 354.365 125.709C354.365 124.518 355.419 123.542 356.832 123.28H350.317C348.547 123.28 347.093 122.148 347.093 120.773C347.093 119.398 348.557 118.267 350.317 118.267Z" fill="#226699"/>
<path opacity="0.1" d="M70.7789 220.357H71.5363C71.271 220.175 71.0481 219.921 70.8875 219.615C70.7268 219.31 70.6333 218.964 70.6151 218.606C70.6151 217.231 72.0634 216.1 73.8391 216.1H96.4325C98.2082 216.1 99.6615 217.231 99.6615 218.606C99.6615 219.987 98.2082 221.113 96.4325 221.113H95.6802C95.9455 221.294 96.1683 221.549 96.329 221.854C96.4896 222.159 96.5832 222.506 96.6013 222.863C96.6013 224.054 95.5472 225.024 94.1347 225.292H100.639C102.415 225.292 103.863 226.418 103.863 227.799C103.863 229.18 102.415 230.305 100.639 230.305H78.0405C76.2699 230.305 74.8165 229.174 74.8165 227.799C74.8165 226.608 75.8758 225.632 77.2831 225.364H70.7789C69.0083 225.364 67.5549 224.238 67.5549 222.863C67.5549 221.488 69.0083 220.357 70.7789 220.357Z" fill="#226699"/>
<path d="M332.079 391.85C330.813 393.017 329.547 394.182 328.282 395.345C327.54 396.03 326.787 396.709 326.04 397.387C325.498 397.881 324.96 398.376 324.408 398.864C321.639 401.347 318.835 403.776 315.974 406.098C315.294 406.651 314.603 407.205 313.927 407.747C308.201 412.304 302.11 416.208 295.74 419.405L295.658 419.446V391.85H332.079Z" fill="#65617D"/>
<path d="M389.025 283.396L389.599 262.825C389.256 262.516 388.908 262.23 388.575 261.944C388.716 255.811 388.415 249.675 387.674 243.6C385.361 223.03 370.342 222.583 366.104 226.828C365.543 227.392 364.93 227.883 364.278 228.293C364.661 225.358 365.137 222.417 365.48 219.511C367.333 203.841 364.457 186.211 354.007 176.084C349.632 171.851 344.284 169.249 339.479 165.707C330.871 159.39 324.07 150.06 315.365 143.91C306.661 137.759 294.435 135.455 286.841 143.362C283.898 146.422 282 150.667 278.981 153.62C273.351 159.122 264.575 159.485 259.662 165.629C259.417 165.939 259.181 166.254 258.956 166.588C254.862 172.696 255.983 181.359 257.288 188.938C258.859 198.06 258.209 205.371 264.933 207.991C264.959 208.354 264.979 208.717 265.015 209.074C265.562 214.67 267.154 220.058 269.678 224.863C272.203 229.668 275.6 233.773 279.631 236.89L278.541 237.343C275.634 238.534 273.019 239.689 271.345 240.481C265.205 243.392 252.278 247.185 252.278 247.185C252.278 247.185 251.971 251.471 252.027 257.794C247.718 263.242 240.528 272.816 238.415 278.49C235.344 286.765 217.996 310.468 213.375 314.046C208.754 317.624 203.744 321.869 203.744 321.869C203.744 321.869 196.427 326.567 192.962 327.013C190.562 327.323 183.137 325.668 183.137 325.668C183.137 325.668 153.481 283.396 155.405 315.832C157.33 348.268 181.018 349.37 181.018 349.37L204.901 348.923C204.901 348.923 217.807 350.936 223.585 345.351C228.518 340.588 254.084 314.457 262.298 302.603C262.487 302.847 262.677 303.085 262.876 303.317C262.876 303.317 266.146 298.399 266.535 303.317C266.924 308.235 264.411 310.462 265.762 312.248C267.113 314.034 271.156 320.297 271.345 322.756C271.535 325.215 265.957 335.259 275.388 342.88C275.537 342.999 275.695 343.112 275.869 343.225C277.553 347.685 282.906 352.049 282.906 352.049L311.793 351.603L366.299 356.52C366.299 356.52 367.921 354.859 370.117 352.144C373.049 355.276 377.117 357.961 381.702 356.312C381.702 356.312 388.253 347.149 388.447 341.112C388.447 341.112 384.21 328.365 382.306 324.566C380.403 320.768 383.657 312.492 383.657 312.492C383.657 312.492 385.965 304.442 387.316 304.442C388.667 304.442 387.7 299.084 387.7 299.084C387.189 298.208 386.87 297.2 386.769 296.149C386.668 295.097 386.789 294.032 387.122 293.047C388.253 289.659 389.025 283.396 389.025 283.396Z" fill="url(#paint0_linear)"/>
<path d="M356.351 278.764L354.304 281.55L346.034 292.755L335.231 293.517L317.939 294.755C317.939 294.755 294.625 262.069 299.005 254.954C300.597 252.388 300.858 249 300.54 245.803C300.499 245.363 300.443 244.922 300.376 244.487C299.852 241.104 298.937 237.82 297.654 234.723L298.227 234.419L298.596 234.223L318.983 223.399L324.029 220.72C324.28 222.338 324.747 223.901 325.411 225.352C325.508 225.578 325.616 225.804 325.728 226.019C332.683 239.415 354.984 230.942 354.984 230.942L356.351 278.764Z" fill="#EE8E9E"/>
<path d="M386.497 262.039C386.344 270.148 385.208 273.649 385.208 273.649L356.351 278.764L355.271 270.047L350.998 235.628L355.01 230.96C356.613 231.363 358.274 231.331 359.864 230.869C361.455 230.406 362.933 229.525 364.185 228.293C368.387 224.066 383.294 224.512 385.586 244.964C386.26 250.621 386.564 256.329 386.497 262.039Z" fill="#EE8E9E"/>
<path d="M379.666 357.02C379.666 357.02 386.16 347.905 386.354 341.904L379.855 329.228L374.123 322.083L363.418 346.125C363.418 346.125 370.49 360.355 379.666 357.02Z" fill="#DFE5EE"/>
<path opacity="0.1" d="M379.666 357.02C379.666 357.02 386.16 347.905 386.354 341.904L379.855 329.228L374.123 322.083L363.418 346.125C363.418 346.125 370.49 360.355 379.666 357.02Z" fill="black"/>
<path d="M326.04 397.387C325.498 397.881 324.961 398.376 324.408 398.864C321.639 401.347 318.835 403.776 315.974 406.098C315.294 406.651 314.603 407.205 313.927 407.747H285.981H160.431H150.682L102.384 405.735L63.5429 405.354L53.8198 404.758L5.30677 401.781C3.52951 394.989 2.19352 388.051 1.31008 381.026C1.1105 379.443 0.931392 377.853 0.79834 376.263L53.7993 379.681L63.5224 380.318L150.662 385.974L160.41 386.605L285.961 394.762L295.622 395.393H295.704L326.04 397.387Z" fill="#D48A9B"/>
<path d="M391.512 353.037C380.863 356.61 370.531 361.212 360.808 367.731C360.035 368.249 359.273 368.779 358.5 369.321C357.727 369.863 356.965 370.405 356.223 370.964C355.481 371.524 354.734 372.078 353.997 372.643L352.861 373.536L351.75 374.417C350.655 375.293 349.575 376.204 348.495 377.085L348.455 377.121C347.743 377.716 347.037 378.311 346.331 378.907C342.344 382.342 338.445 385.938 334.561 389.546C333.742 390.308 332.922 391.068 332.099 391.826L328.312 395.321C327.57 396.006 326.818 396.685 326.071 397.364C325.529 397.858 324.991 398.352 324.439 398.84L295.781 397.25H295.699L286.038 396.726L160.431 389.802L150.682 389.26L63.5429 384.444L53.8198 383.902L1.31007 381.026C1.11049 379.443 0.931386 377.853 0.798333 376.263C0.532228 373.536 0.334353 370.798 0.204712 368.047L53.8147 346.018L63.5378 342.011L72.3704 338.379L88.4646 339.355L125.663 341.576L150.697 343.106L160.446 343.702L166.674 344.083L168.163 344.178L220.576 347.363L221.128 347.405L244.515 348.822H244.781H244.934L247.273 348.959L255.246 349.447L265.215 350.043L268.5 350.245L269.119 350.287L273.766 350.567L275.091 350.644L279.528 350.918L281.294 351.031H281.35H281.718L285.869 351.287L292.296 351.68H292.327L294.323 351.799H294.538L295.73 351.876L298.657 352.055L301.216 352.21H301.241L304.112 352.382H304.158L306.333 352.519L308.001 352.621L313.922 352.984L314.987 353.049H315.355L315.867 353.085L317.602 353.192L318.38 353.24L324.418 353.603H324.971L333.885 353.514H333.947L367.839 353.192H368.489H369.175H371.191L382.102 353.091H383.729L391.512 353.037Z" fill="#EFC6CD"/>
<path d="M162.769 353.853L165.922 373.364L251.628 371.863C251.628 371.863 258.076 374.03 257.933 368.029C257.933 368.029 270.977 353.686 337.048 370.363L311.681 347.185L242.34 351.519L161.935 349.019L162.769 353.853Z" fill="#226699"/>
<path d="M164.346 349.185L167.355 370.363C167.355 370.363 241.045 367.862 252.631 370.196L243.875 350.852C243.875 350.852 199.318 346.018 164.346 349.185Z" fill="white"/>
<path opacity="0.1" d="M164.346 349.185L167.355 370.363C167.355 370.363 241.045 367.862 252.631 370.196L243.875 350.852C243.875 350.852 199.318 346.018 164.346 349.185Z" fill="black"/>
<path d="M165.446 349.108L168.414 368.803C168.414 368.803 241.168 366.481 252.631 368.648L243.998 350.662C243.998 350.662 199.978 346.161 165.446 349.108Z" fill="white"/>
<path opacity="0.1" d="M166.781 349.715L169.673 368.136C169.673 368.136 240.83 365.963 252.063 367.993L243.619 351.162C243.619 351.162 200.562 346.935 166.781 349.715Z" fill="black"/>
<path d="M167.354 349.042L170.261 367.499C170.261 367.499 241.419 365.326 252.651 367.356L244.187 350.507C244.187 350.507 201.135 346.286 167.354 349.042Z" fill="white"/>
<path d="M117.01 298.953C117.01 298.953 120.735 304.615 115.295 313.171C109.855 321.726 105.362 328.942 107.179 334.277C107.179 334.277 115.367 318.392 122.071 318.202C128.774 318.011 124.363 308.503 117.01 298.953Z" fill="#226699"/>
<path opacity="0.1" d="M117.009 298.953C117.337 299.502 117.594 300.104 117.772 300.739C124.292 309.67 127.766 318.005 121.497 318.184C115.658 318.374 108.658 330.52 106.979 333.592C107.037 333.822 107.104 334.055 107.179 334.289C107.179 334.289 115.367 318.404 122.071 318.213C128.774 318.023 124.363 308.503 117.009 298.953Z" fill="black"/>
<path d="M123.933 306.175C123.933 308.163 123.739 309.783 123.503 309.783C123.268 309.783 123.074 308.163 123.074 306.175C123.074 304.186 123.314 305.115 123.55 305.115C123.785 305.115 123.933 304.18 123.933 306.175Z" fill="#FFD037"/>
<path d="M126.308 308.55C124.803 309.509 123.493 310.087 123.381 309.842C123.268 309.598 124.404 308.652 125.898 307.675C127.393 306.699 126.809 307.413 126.922 307.675C127.035 307.937 127.812 307.598 126.308 308.55Z" fill="#FFD037"/>
<path d="M97.3434 298.953C97.3434 298.953 93.6179 304.615 99.0628 313.171C104.508 321.726 108.991 328.942 107.179 334.277C107.179 334.277 98.9656 318.392 92.2823 318.202C85.5989 318.011 89.9897 308.503 97.3434 298.953Z" fill="#226699"/>
<path opacity="0.1" d="M97.3434 298.953C97.0187 299.504 96.762 300.105 96.5809 300.739C90.0613 309.67 86.5866 318.005 92.8554 318.184C98.6944 318.374 105.7 330.52 107.379 333.592C107.324 333.822 107.257 334.055 107.179 334.289C107.179 334.289 98.9656 318.404 92.2823 318.213C85.5989 318.023 89.9897 308.503 97.3434 298.953Z" fill="black"/>
<path d="M90.4196 306.175C90.4196 308.163 90.614 309.783 90.8494 309.783C91.0848 309.783 91.2793 308.163 91.2793 306.175C91.2793 304.186 91.0388 305.115 90.8034 305.115C90.568 305.115 90.4196 304.18 90.4196 306.175Z" fill="#FFD037"/>
<path d="M88.0449 308.55C89.5494 309.509 90.8646 310.087 90.9772 309.842C91.0898 309.598 89.9537 308.652 88.4594 307.675C86.9652 306.699 87.5485 307.413 87.436 307.675C87.3234 307.937 86.5404 307.598 88.0449 308.55Z" fill="#FFD037"/>
<path d="M127.198 326.638L127.014 328.424L126.753 330.919L126.646 331.961L126.385 334.461L126.272 335.503L126.006 338.004L123.028 366.416C122.762 368.952 119.2 370.929 114.901 370.929H99.4364C95.1378 370.929 91.5812 368.952 91.3151 366.416L88.3316 338.004L88.0706 335.503L87.9632 334.461L87.6971 331.961L87.5896 330.919L87.3286 328.424L87.1393 326.638C86.9909 325.203 88.915 323.995 91.3509 323.995H123.007C125.438 323.995 127.367 325.203 127.198 326.638Z" fill="#65617D"/>
<path d="M127.029 328.406L126.768 330.907H87.5896L87.3286 328.406H127.029Z" fill="#9D9CB5"/>
<path d="M126.661 331.949L126.4 334.45H87.9631L87.697 331.949H126.661Z" fill="#9D9CB5"/>
<path d="M126.287 335.491L126.026 337.986H88.3315L88.0706 335.491H126.287Z" fill="#9D9CB5"/>
<path d="M174.427 324.34C174.427 324.34 164.489 313.224 164.873 327.674C165.256 342.124 174.427 324.34 174.427 324.34Z" fill="#EE8E9E"/>
<path d="M263.669 298.995C263.449 300.114 262.38 301.971 260.712 304.299C252.094 316.374 227.576 341.469 222.771 346.125C217.04 351.686 204.236 349.697 204.236 349.697L180.542 350.144C180.542 350.144 157.038 349.03 155.124 316.802C153.21 284.574 182.64 326.585 182.64 326.585C182.64 326.585 190.009 328.228 192.389 327.918C195.828 327.478 203.089 322.81 203.089 322.81C203.089 322.81 208.058 318.583 212.644 315.028C217.229 311.474 234.429 287.903 237.489 279.674C239.428 274.453 245.677 265.915 249.991 260.378C252.467 257.193 254.305 255.02 254.305 255.02C254.305 255.02 265.005 292.1 263.669 298.995Z" fill="#EE8E9E"/>
<path opacity="0.1" d="M263.669 298.995C263.449 300.114 262.38 301.971 260.711 304.299C252.012 293.993 250.195 273.429 249.99 260.354C252.467 257.169 254.304 254.996 254.304 254.996C254.304 254.996 265.005 292.1 263.669 298.995Z" fill="black"/>
<path opacity="0.1" d="M354.299 281.55L346.034 292.755L335.231 293.517L317.939 294.755C317.939 294.755 294.625 262.069 299.005 254.954C300.597 252.388 300.858 249 300.54 245.803C300.499 245.363 300.443 244.922 300.376 244.487C299.852 241.104 298.937 237.82 297.654 234.723L298.227 234.419L298.596 234.223C299.506 237.172 300.134 240.229 300.469 243.338C300.525 243.761 300.576 244.202 300.627 244.654C300.806 246.262 300.97 248.048 301.139 250.013C302.47 268.005 312.198 274.774 316.588 276.93C318 277.622 319.38 278.399 320.723 279.258C324.948 281.968 329.819 282.993 334.592 282.175C345.43 280.52 354.268 271.357 354.268 271.357L354.314 280.377L354.299 281.55Z" fill="black"/>
<path d="M354.631 351.466C354.631 351.466 283.545 351.239 274.175 343.684C264.805 336.128 270.358 326.12 270.163 323.673C269.969 321.226 265.962 315.004 264.626 313.218C263.291 311.432 265.773 309.217 265.389 304.329C265.005 299.441 261.761 304.329 261.761 304.329C248.379 288.54 251.244 248.524 251.244 248.524C251.244 248.524 264.038 244.749 270.179 241.85C271.842 241.064 274.431 239.945 277.343 238.736L278.423 238.284C285.93 235.158 294.855 231.627 294.855 231.627C294.855 231.627 296.569 230.216 298.294 234.437C299.082 236.378 299.875 239.504 300.51 244.499C300.566 244.922 300.617 245.363 300.668 245.815C300.847 247.423 301.011 249.209 301.18 251.174C302.51 269.166 312.239 275.935 316.629 278.091C318.041 278.783 319.421 279.561 320.764 280.419C324.988 283.129 329.86 284.154 334.632 283.336C345.471 281.681 354.309 272.518 354.309 272.518L354.355 281.538L354.488 308.64L354.631 351.466Z" fill="#DFE5EE"/>
<path d="M351.571 316.338L350.425 324.787C350.425 324.787 322.141 333.009 311.062 335.456C299.982 337.903 276.089 334.789 274.37 340.124C272.65 345.458 281.631 352.799 281.631 352.799L310.289 352.353L364.37 357.247C364.37 357.247 385.008 336.123 378.32 321.446C371.631 306.77 351.571 316.338 351.571 316.338Z" fill="#EE8E9E"/>
<path opacity="0.1" d="M293.289 249.637C293.289 249.637 280.291 262.087 282.778 268.094C285.265 274.102 293.289 249.637 293.289 249.637Z" fill="black"/>
<path opacity="0.1" d="M277.235 272.089C277.235 272.089 264.048 298.548 264.816 300.549C265.583 302.549 269.211 309.664 269.017 304.329C268.823 298.995 277.235 272.089 277.235 272.089Z" fill="black"/>
<path opacity="0.1" d="M282.588 276.763C282.588 276.763 279.518 293.213 276.473 300.108C273.428 307.002 282.588 276.763 282.588 276.763Z" fill="black"/>
<path opacity="0.1" d="M325.754 226.037C323.227 231.427 319.627 236.036 315.256 239.477C310.884 242.918 305.868 245.091 300.627 245.815H300.566C292.321 246.941 284.015 244.412 277.302 238.73C284.978 235.503 294.814 231.621 294.814 231.621C294.814 231.621 296.528 230.21 298.253 234.431L324.055 220.738C324.345 222.608 324.92 224.402 325.754 226.037Z" fill="black"/>
<path d="M329.786 206.282C329.796 212.977 328.296 219.559 325.436 225.37C324.07 228.141 322.415 230.704 320.508 233.003C315.188 239.447 308.1 243.524 300.469 244.529H300.402C299.182 244.692 297.955 244.773 296.728 244.773C288.605 244.773 280.767 241.294 274.708 235C268.649 228.705 264.794 220.036 263.879 210.646C263.737 209.205 263.667 207.756 263.669 206.306C263.669 196.105 267.152 186.322 273.352 179.109C279.552 171.896 287.96 167.844 296.728 167.844C305.495 167.844 313.904 171.896 320.104 179.109C326.303 186.322 329.786 196.105 329.786 206.306V206.282Z" fill="#EE8E9E"/>
<path opacity="0.1" d="M351.192 279.061L354.263 273.703C354.263 273.703 371.079 250.358 387.526 265.254L386.953 285.712C386.953 285.712 386.185 291.933 385.039 295.238C384.71 296.218 384.59 297.277 384.69 298.323C384.789 299.37 385.106 300.372 385.612 301.245C385.612 301.245 386.569 306.604 385.233 306.604C383.898 306.604 381.6 314.605 381.6 314.605C381.6 314.605 378.35 322.834 380.264 326.614C382.178 330.395 386.38 343.065 386.38 343.065C386.38 343.065 379.691 338.397 377.777 330.615C377.777 330.615 361.535 315.939 348.92 325.257L351.192 279.061Z" fill="black"/>
<path opacity="0.1" d="M386.497 262.039C386.344 270.148 385.208 273.649 385.208 273.649L356.351 278.764L355.271 270.047C359.048 265.463 372.783 250.888 386.497 262.039Z" fill="black"/>
<path d="M351.192 277.87L354.263 272.512C354.263 272.512 371.079 249.167 387.526 264.064L386.953 284.521C386.953 284.521 386.185 290.743 385.039 294.047C384.71 295.028 384.59 296.086 384.69 297.133C384.789 298.179 385.106 299.182 385.612 300.054C385.612 300.054 386.569 305.413 385.233 305.413C383.898 305.413 381.6 313.415 381.6 313.415C381.6 313.415 378.35 321.643 380.264 325.424C382.178 329.204 386.38 341.874 386.38 341.874C386.38 341.874 379.691 337.206 377.777 329.424C377.777 329.424 361.535 314.748 348.92 324.066L351.192 277.87Z" fill="#DFE5EE"/>
<path opacity="0.1" d="M378.325 262.754C378.325 262.754 350.619 282.544 351.955 299.9C351.955 299.9 367.435 268.088 378.325 262.754Z" fill="black"/>
<path opacity="0.1" d="M354.294 281.556L354.427 308.658C349.186 308.932 344.248 308.14 340.343 304.192C337.626 301.442 336.045 297.643 335.226 293.535C334.617 290.225 334.393 286.835 334.561 283.455C334.558 283.421 334.558 283.388 334.561 283.354C334.883 275.87 336.362 268.386 335.584 260.95C334.806 253.513 330.933 245.666 324.607 244.1C323.359 243.785 321.957 243.672 321.066 242.606C320.084 241.415 320.13 239.564 320.237 237.914L320.421 235.134C320.467 234.42 320.488 233.711 320.488 233.003C320.484 226.681 318.594 220.558 315.141 215.678C311.687 210.798 306.885 207.464 301.553 206.246L301.349 206.204C299.568 205.788 297.715 205.377 295.935 205.853C292.547 206.764 290.357 210.586 287.235 212.402C281.248 215.879 271.264 212.075 264.995 210.878C264.585 210.801 264.196 210.711 263.823 210.61C263.68 209.169 263.61 207.72 263.613 206.27C263.615 200.379 264.781 194.567 267.019 189.283C269.258 183.999 272.51 179.384 276.524 175.794C280.539 172.204 285.208 169.734 290.173 168.576C295.137 167.418 300.264 167.603 305.158 169.115C310.052 170.627 314.582 173.427 318.398 177.299C322.214 181.17 325.215 186.01 327.169 191.445C329.123 196.879 329.978 202.764 329.668 208.644C329.358 214.524 327.891 220.242 325.38 225.358C325.477 225.584 325.585 225.81 325.697 226.025C332.652 239.421 354.954 230.948 354.954 230.948L356.294 278.752L354.294 281.556Z" fill="black"/>
<path d="M288.438 211.741C291.539 209.92 293.729 206.097 297.137 205.192C298.913 204.716 300.765 205.127 302.557 205.538L302.761 205.585C308.398 206.883 313.43 210.541 316.903 215.866C320.377 221.191 322.051 227.814 321.609 234.479L321.424 237.259C321.312 238.903 321.266 240.766 322.259 241.945C323.144 243.011 324.546 243.136 325.795 243.434C332.12 245.005 335.994 252.811 336.772 260.289C337.549 267.767 336.045 275.275 335.748 282.788C335.451 290.302 336.638 298.596 341.52 303.531C349.197 311.271 360.864 306.866 371.022 306.157C366.529 306.157 363.162 300.763 362.916 295.547C362.671 290.332 364.667 285.366 366.575 280.663C368.484 275.959 370.398 270.899 369.973 265.695C369.39 258.55 364.549 252.829 362.696 245.952C360.537 237.95 362.62 229.359 363.597 221.041C365.434 205.466 362.573 187.932 352.211 177.864C347.871 173.655 342.564 171.065 337.795 167.54C329.249 161.235 322.509 151.989 313.871 145.857C305.233 139.724 293.105 137.45 285.567 145.309C282.65 148.351 280.767 152.572 277.768 155.508C271.908 161.253 262.595 161.36 257.897 168.41C253.854 174.477 254.949 183.092 256.244 190.623C257.969 200.667 256.996 208.485 266.223 210.271C272.466 211.42 282.445 215.224 288.438 211.741Z" fill="#603556"/>
<path opacity="0.1" d="M364.462 301.358C357.067 302.412 349.739 302.954 344.355 297.524C339.473 292.588 338.271 284.301 338.583 276.781C338.895 269.261 340.39 261.748 339.607 254.275C338.824 246.803 334.955 238.998 328.63 237.426C327.381 237.117 325.984 237.003 325.094 235.938C324.106 234.747 324.147 232.889 324.259 231.246L324.444 228.466C324.886 221.801 323.212 215.179 319.738 209.855C316.264 204.531 311.233 200.874 305.596 199.578L305.392 199.53C303.6 199.119 301.748 198.709 299.972 199.185C296.585 200.096 294.394 203.948 291.273 205.734C285.28 209.217 275.306 205.413 269.027 204.216C259.816 202.459 260.778 194.63 259.048 184.568C258.081 178.948 257.227 172.72 258.537 167.397C258.291 167.701 258.056 167.993 257.83 168.356C253.788 174.423 254.883 183.038 256.177 190.57C257.902 200.614 256.93 208.431 266.156 210.217C272.43 211.408 282.409 215.218 288.402 211.735C291.503 209.914 293.693 206.091 297.101 205.186C298.877 204.71 300.73 205.121 302.521 205.532L302.725 205.579C308.362 206.877 313.394 210.535 316.868 215.86C320.341 221.185 322.015 227.808 321.573 234.473L321.389 237.254C321.276 238.897 321.23 240.76 322.223 241.939C323.108 243.005 324.51 243.13 325.759 243.428C332.084 244.999 335.958 252.805 336.736 260.283C337.514 267.761 336.014 275.269 335.712 282.782C335.41 290.296 336.603 298.59 341.485 303.525C349.161 311.265 360.828 306.86 370.986 306.151C368.228 306.169 365.91 304.133 364.462 301.358Z" fill="black"/>
<path d="M156.777 321.22L188.326 307.526C189.072 307.202 189.897 307.236 190.622 307.62C191.346 308.004 191.91 308.707 192.189 309.575C192.468 310.442 192.439 311.403 192.109 312.246C191.779 313.089 191.175 313.745 190.429 314.07L158.88 327.763L152.115 326.978L156.777 321.22Z" fill="#5C5C8E"/>
<path opacity="0.1" d="M191.238 308.455C191.516 309.324 191.486 310.285 191.155 311.128C190.824 311.971 190.218 312.627 189.472 312.95L157.903 326.692L152.826 326.096L152.094 327.001L158.86 327.787L190.409 314.093C191.154 313.769 191.758 313.113 192.088 312.27C192.418 311.427 192.447 310.466 192.169 309.598C191.936 308.875 191.505 308.261 190.941 307.854C191.054 308.044 191.154 308.245 191.238 308.455Z" fill="white"/>
<path d="M156.782 321.22L158.88 327.763L153.333 327.114L152.12 326.972L153.778 324.923L156.782 321.22Z" fill="#EFC8C4"/>
<path d="M153.773 324.906C153.903 325.018 154.013 325.158 154.1 325.316C154.152 325.412 154.18 325.522 154.18 325.635C154.18 325.748 154.152 325.858 154.1 325.953C154.013 326.058 153.911 326.145 153.799 326.209C153.672 326.308 153.566 326.438 153.488 326.591C153.41 326.743 153.362 326.914 153.348 327.091L152.13 326.954L153.773 324.906Z" fill="#727A9C"/>
<path d="M255.834 363.01C255.834 363.01 283.161 356.336 329.013 364.796L311.051 349.459L278.372 341.677L255.251 348.822L255.834 363.01Z" fill="white"/>
<path opacity="0.1" d="M255.834 363.01C255.834 363.01 283.161 356.336 329.013 364.796L311.051 349.459L278.372 341.677L255.251 348.822L255.834 363.01Z" fill="black"/>
<path d="M252.631 370.226C252.631 370.226 266.392 326.918 337.068 370.363L311.701 351.37C311.701 351.37 250.932 331.836 243.911 354.347L252.631 370.226Z" fill="white"/>
<path opacity="0.1" d="M252.631 370.196C252.631 370.196 266.392 323.893 337.068 371.03L311.701 350.43C311.701 350.43 250.912 327.067 243.875 351.519L252.631 370.196Z" fill="black"/>
<path d="M252.631 370.214C252.631 370.214 266.392 323.227 337.068 370.363L311.701 349.763C311.701 349.763 250.932 327.067 243.911 351.549L252.631 370.214Z" fill="white"/>
<path opacity="0.1" d="M252.631 370.226C252.631 370.226 266.392 318.005 337.068 371.03L311.681 347.852C311.681 347.852 250.912 324.036 243.891 351.519L252.631 370.226Z" fill="black"/>
<path d="M252.631 370.196C252.631 370.196 266.392 317.338 337.068 370.363L311.681 347.185C311.681 347.185 250.912 323.37 243.891 350.852L252.631 370.196Z" fill="white"/>
<path opacity="0.1" d="M464.666 365.219C464.666 365.219 447.702 386.361 462.972 396.631C462.972 396.631 464.968 399.429 467.818 397.965C467.818 397.965 466.856 396.971 468.785 395.053C469.467 394.366 470.077 393.586 470.602 392.731C471.314 391.578 471.684 390.186 471.656 388.766C471.656 388.766 473.877 380.377 466.82 369.488C466.82 369.488 466.18 365.844 465.638 365.445L464.348 370.524C464.348 370.524 467.588 371.482 468.806 374.352C468.806 374.352 464.538 370.452 464.123 371.268C464.041 371.435 463.545 374.001 463.545 374.001C463.545 374.001 469.174 375.692 470.935 380.193C470.935 380.193 466.385 374.757 463.351 374.971L462.798 378.889C462.798 378.889 468.821 380.342 470.986 385.378C470.986 385.378 466.063 379.883 462.716 379.758L462.619 383.694C462.619 383.694 468.468 385.242 470.254 389.445C470.254 389.445 464.016 383.771 462.649 384.599C462.649 384.599 462.747 388.224 463.161 389.171C463.161 389.171 467.337 390.362 468.187 392.946C468.187 392.946 463.673 389.665 463.284 390.165C463.284 390.165 464.497 394.845 466.186 396.84C466.186 396.84 463.504 394.107 462.665 390.421C462.665 390.421 461.529 392.725 461.815 394.988C461.815 394.988 460.142 392.833 462.383 389.284C462.383 389.284 461.565 385.593 461.769 385.009C461.769 385.009 459.134 388.147 458.458 390.963C458.458 390.963 457.947 387.438 461.764 383.991V380.026C461.764 380.026 458.09 383.961 457.333 386.397C457.333 386.397 457.281 382.705 461.841 379.032L462.353 375.18C462.353 375.18 458.965 378.287 457.619 380.788C457.619 380.788 458.202 377.347 462.532 374.084L463.131 371.56C463.131 371.56 460.695 373.882 460.06 374.62C459.426 375.358 459.185 375.215 459.185 375.215C460.182 373.219 461.634 371.583 463.381 370.488C463.381 370.488 464.947 365.356 464.666 365.219Z" fill="#226699"/>
<path opacity="0.1" d="M540.501 21.2075C540.501 21.2075 517.836 33.1151 528.521 49.4226C528.521 49.4226 529.437 52.9056 532.548 52.8341C532.548 52.8341 531.99 51.4826 534.406 50.5776C535.264 50.2513 536.086 49.8055 536.852 49.2499C537.891 48.5048 538.694 47.3869 539.139 46.0647C539.139 46.0647 543.97 39.3249 541.069 26.1134C541.069 26.1134 541.688 22.4637 541.319 21.8505L538.443 25.9586C538.443 25.9586 541.115 28.2925 541.289 31.4897C541.289 31.4897 538.648 25.9765 537.993 26.5481C537.86 26.6612 536.555 28.8046 536.555 28.8046C536.555 28.8046 541.161 32.8889 541.319 37.8365C541.319 37.8365 538.924 30.7753 536.048 29.6083L534.242 32.9782C534.242 32.9782 539.319 37.0208 539.656 42.6412C539.656 42.6412 536.934 35.3657 533.889 33.7462L532.492 37.3185C532.492 37.3185 537.379 41.373 537.609 46.0527C537.609 46.0527 533.735 38.0151 532.2 38.1699C532.2 38.1699 531.09 41.5517 531.177 42.6174C531.177 42.6174 534.626 45.5943 534.564 48.3569C534.564 48.3569 531.494 43.308 530.982 43.5938C530.982 43.5938 530.547 48.4521 531.448 51.0539C531.448 51.0539 529.877 47.3269 530.327 43.5521C530.327 43.5521 528.511 45.1716 528.03 47.3864C528.03 47.3864 527.201 44.6417 530.445 42.3733C530.445 42.3733 530.911 38.6045 531.294 38.158C531.294 38.158 527.82 39.8667 526.274 42.1411C526.274 42.1411 526.965 38.6581 531.637 37.1935L532.968 33.5497C532.968 33.5497 528.275 35.5264 526.766 37.4316C526.766 37.4316 527.943 34.0022 533.367 32.6686L535.112 29.3463C535.112 29.3463 530.957 30.6979 528.884 32.3947C528.884 32.3947 530.568 29.4892 535.644 28.4176L537.031 26.3575C537.031 26.3575 534.012 27.4054 533.167 27.7984C532.323 28.1913 532.144 27.9591 532.144 27.9591C533.735 26.5589 535.629 25.7013 537.614 25.4823C537.614 25.4823 540.685 21.4456 540.501 21.2075Z" fill="#226699"/>
<path opacity="0.1" d="M325.38 28.5783C325.38 28.5783 291.329 39.8906 307.884 56.7279C307.884 56.7279 309.352 60.3002 314.065 60.3002C314.065 60.3002 313.185 58.9189 316.829 58.0795C318.083 57.7859 319.313 57.3635 320.503 56.8172C321.907 56.2449 323.101 55.1343 323.891 53.6677C323.891 53.6677 331.055 46.9994 326.352 33.5557C326.352 33.5557 327.207 29.8881 326.634 29.257L322.376 33.3175C322.376 33.3175 326.47 35.7646 326.813 38.9975C326.813 38.9975 322.683 33.3473 321.696 33.901C321.496 34.0141 319.567 36.1337 319.567 36.1337C319.567 36.1337 326.67 40.4085 326.992 45.4157C326.992 45.4157 323.205 38.2056 318.804 36.9375L316.143 40.2835C316.143 40.2835 323.922 44.5286 324.561 50.2204C324.561 50.2204 320.273 42.7841 315.626 41.0515L313.579 44.6238C313.579 44.6238 321.071 48.8749 321.562 53.6141C321.562 53.6141 315.509 45.3681 313.185 45.4693C313.185 45.4693 311.584 48.8629 311.727 49.9406C311.727 49.9406 317.018 53.0842 316.993 55.8468C316.993 55.8468 312.213 50.6431 311.425 50.917C311.425 50.917 310.882 55.817 312.305 58.4724C312.305 58.4724 309.839 54.656 310.432 50.8575C310.432 50.8575 307.725 52.4352 307.044 54.656C307.044 54.656 305.724 51.8637 310.586 49.6727C310.586 49.6727 311.205 45.8741 311.773 45.4336C311.773 45.4336 306.553 47.053 304.266 49.3035C304.266 49.3035 305.228 45.8027 312.269 44.469L314.204 40.8253C314.204 40.8253 307.142 42.6829 304.9 44.5583C304.9 44.5583 306.604 41.1289 314.792 39.9382L317.351 36.6338C317.351 36.6338 311.087 37.8663 307.986 39.5214C307.986 39.5214 310.468 36.6338 318.129 35.711L320.176 33.6748C320.176 33.6748 315.626 34.6393 314.357 35.0084C313.088 35.3776 312.822 35.1394 312.822 35.1394C315.379 33.6987 318.17 32.9034 321.01 32.8055C321.01 32.8055 325.677 28.8284 325.38 28.5783Z" fill="#226699"/>
<path opacity="0.1" d="M425.84 470.006C425.84 470.006 442.983 449.055 427.8 438.612C427.8 438.612 425.825 435.789 422.964 437.218C422.964 437.218 423.921 438.225 421.976 440.124C421.289 440.804 420.672 441.575 420.139 442.422C419.416 443.567 419.035 444.955 419.054 446.375C419.054 446.375 416.756 454.74 423.726 465.707C423.726 465.707 424.335 469.357 424.873 469.768L426.208 464.701C426.208 464.701 422.974 463.707 421.782 460.825C421.782 460.825 426.014 464.767 426.433 463.957C426.52 463.79 427.037 461.236 427.037 461.236C427.037 461.236 421.408 459.45 419.699 454.961C419.699 454.961 424.202 460.45 427.242 460.266L427.825 456.354C427.825 456.354 421.818 454.836 419.684 449.805C419.684 449.805 424.561 455.354 427.907 455.52L428.035 451.579C428.035 451.579 422.196 449.936 420.426 445.709C420.426 445.709 426.618 451.46 427.989 450.644C427.989 450.644 427.923 447.024 427.477 446.072C427.477 446.072 423.312 444.798 422.483 442.237C422.483 442.237 426.971 445.572 427.36 445.071C427.36 445.071 426.188 440.38 424.514 438.367C424.514 438.367 427.176 441.13 427.984 444.821C427.984 444.821 429.141 442.529 428.869 440.267C428.869 440.267 430.527 442.446 428.255 445.965C428.255 445.965 429.043 449.668 428.834 450.245C428.834 450.245 431.495 447.137 432.191 444.357C432.191 444.357 432.702 447.888 428.828 451.287L428.777 455.252C428.777 455.252 432.482 451.359 433.26 448.93C433.26 448.93 433.26 452.627 428.69 456.247L428.179 460.093C428.179 460.093 431.592 457.021 432.958 454.538C432.958 454.538 432.344 457.967 427.989 461.182L427.37 463.701C427.37 463.701 429.826 461.409 430.481 460.676C431.136 459.944 431.362 460.081 431.362 460.081C430.349 462.068 428.882 463.688 427.124 464.761C427.124 464.761 425.584 469.863 425.84 470.006Z" fill="#226699"/>
<path opacity="0.1" d="M258.639 0.738267C258.639 0.738267 261.561 29.4595 278.162 22.5292C278.162 22.5292 281.289 22.559 282.169 19.082C282.169 19.082 280.889 19.2963 280.879 16.3432C280.867 15.2927 280.749 14.2475 280.526 13.2294C280.231 11.8519 279.557 10.6245 278.607 9.73448C278.607 9.73448 274.534 2.33984 262.81 1.61348C262.81 1.61348 260.005 -0.172665 259.391 0.0535795L261.894 4.47726C261.894 4.47726 264.611 2.21481 267.282 2.98881C267.282 2.98881 261.97 4.26293 262.242 5.156C262.293 5.34057 263.654 7.43035 263.654 7.43035C263.654 7.43035 268.439 3.50084 272.533 4.84044C272.533 4.84044 266.028 5.36438 264.207 8.20435L266.392 11.2289C266.392 11.2289 271.233 6.81116 275.946 8.12695C275.946 8.12695 269.16 8.96048 266.914 11.8481L269.462 14.4797C269.462 14.4797 274.252 10.2763 278.162 11.4075C278.162 11.4075 270.404 13.2889 270.066 15.0334C270.066 15.0334 272.507 17.2839 273.408 17.5221C273.408 17.5221 276.908 14.5987 279.129 15.4918C279.129 15.4918 274.063 17.3851 274.14 18.052C274.14 18.052 277.993 19.9929 280.393 19.7786C280.393 19.7786 276.867 20.3739 273.909 18.7664C273.909 18.7664 274.687 21.2611 276.36 22.4697C276.36 22.4697 273.863 22.559 272.978 18.302C272.978 18.302 270.03 16.6469 269.78 16.0932C269.78 16.0932 270.138 20.4573 271.535 22.8567C271.535 22.8567 268.884 21.0705 269.089 15.4204L266.53 12.8424C266.53 12.8424 266.74 18.6473 267.845 20.8979C267.845 20.8979 265.389 18.558 265.921 12.1339L263.726 9.19863C263.726 9.19863 263.577 14.2117 264.345 17.0219C264.345 17.0219 262.467 14.2832 263.122 8.32938L261.848 6.16815C261.848 6.16815 261.801 9.82974 261.848 10.8895C261.894 11.9493 261.674 12.0505 261.674 12.0505C261.001 9.86899 260.863 7.5129 261.274 5.2453C261.274 5.2453 258.895 0.595375 258.639 0.738267Z" fill="#226699"/>
<path opacity="0.1" d="M382.716 404.865C382.716 404.865 358.756 397.125 357.988 417.63C357.988 417.63 356.781 420.988 359.211 423.251C359.211 423.251 359.523 421.798 361.877 422.899C362.717 423.286 363.593 423.556 364.487 423.703C365.697 423.906 366.93 423.642 367.998 422.953C367.998 422.953 375.418 421.369 380.454 409.057C380.454 409.057 382.936 406.717 383.012 405.967L378.545 406.985C378.545 406.985 379.312 410.771 377.685 413.355C377.685 413.355 378.709 407.152 377.874 407.104C377.706 407.104 375.526 407.765 375.526 407.765C375.526 407.765 376.836 414.35 374.221 418.25C374.221 418.25 376.268 411.045 374.697 408.009L371.452 409.253C371.452 409.253 373.131 416.136 370.296 420.708C370.296 420.708 372.21 413.093 370.756 409.581L367.716 411.301C367.716 411.301 369.252 418.053 366.862 421.84C366.862 421.84 368.305 412.778 367.041 411.748C367.041 411.748 364.329 413.534 363.802 414.403C363.802 414.403 364.825 419.28 363.249 421.334C363.249 421.334 363.658 415.159 363.101 414.993C363.101 414.993 360.091 418.404 359.355 421.072C359.355 421.072 360.199 417.041 362.619 414.475C362.619 414.475 360.337 414.368 358.746 415.707C358.746 415.707 359.616 412.986 363.351 413.659C363.351 413.659 365.787 411.105 366.325 411.051C366.325 411.051 362.742 409.777 360.276 410.373C360.276 410.373 362.722 408.205 367.118 410.563L370.147 408.777C370.147 408.777 365.449 406.806 363.244 407.146C363.244 407.146 366.033 405.359 370.92 408.39L374.082 407.134C374.082 407.134 370.152 405.08 367.624 404.841C367.624 404.841 370.516 403.859 375.004 406.818L377.204 406.264C377.204 406.264 374.308 404.824 373.443 404.478C372.578 404.133 372.583 403.883 372.583 403.883C374.565 403.988 376.483 404.73 378.125 406.026C378.125 406.026 382.731 405.193 382.716 404.865Z" fill="#226699"/>
</g>
<defs>
<linearGradient id="paint0_linear" x1="272.456" y1="356.8" x2="272.456" y2="138.289" gradientUnits="userSpaceOnUse">
<stop stop-color="#808080" stop-opacity="0.25"/>
<stop offset="0.54" stop-color="#808080" stop-opacity="0.12"/>
<stop offset="1" stop-color="#808080" stop-opacity="0.1"/>
</linearGradient>
<clipPath id="clip0">
<rect width="542" height="470" fill="white"/>
</clipPath>
</defs>
</svg>
